<svg width="647" height="76" viewBox="0 0 647 76" fill="none" xmlns="http://www.w3.org/2000/svg">
<g clip-path="url(#clip0_1_72)">
<path fill-rule="evenodd" clip-rule="evenodd" d="M69.5756 9.94569H32.4687C17.9523 9.94569 6.18451 21.8028 6.18451 36.4293C6.18451 51.0559 17.9523 62.913 32.4687 62.913H69.5756C84.0924 62.913 95.8599 51.0559 95.8599 36.4293C95.8599 21.8028 84.0924 9.94569 69.5756 9.94569ZM32.4687 3.71423C14.5367 3.71423 0 18.3613 0 36.4293C0 54.4974 14.5367 69.1445 32.4687 69.1445H69.5756C87.5076 69.1445 102.044 54.4974 102.044 36.4293C102.044 18.3613 87.5076 3.71423 69.5756 3.71423H32.4687Z" fill="#121722"/>
<path d="M102.044 36.4293C102.044 54.4974 87.5076 69.1445 69.5759 69.1445C51.644 69.1445 37.1073 54.4974 37.1073 36.4293C37.1073 18.3613 51.644 3.71423 69.5759 3.71423C87.5076 3.71423 102.044 18.3613 102.044 36.4293Z" fill="#121722"/>
<path d="M120.009 74.449L143.305 0H161.417L184.713 74.449H171.988L150.847 7.6517H153.618L132.735 74.449H120.009ZM132.991 58.3183V46.6857H171.783V58.3183H132.991Z" fill="#121722"/>
<path d="M254.383 74.449V40.5333C254.383 36.7075 253.442 33.7261 251.561 31.5892C249.68 29.4177 247.131 28.332 243.916 28.332C241.932 28.332 240.153 28.7972 238.58 29.7279C237.006 30.624 235.757 31.9682 234.833 33.7606C233.91 35.5184 233.448 37.6208 233.448 40.068L227.958 36.8109C227.923 32.9506 228.779 29.5556 230.523 26.6258C232.302 23.6617 234.697 21.3524 237.707 19.6979C240.718 18.0435 244.07 17.2164 247.764 17.2164C253.887 17.2164 258.574 19.0775 261.823 22.8C265.107 26.4879 266.749 31.3478 266.749 37.3796V74.449H254.383ZM187.73 74.449V18.6122H198.659V35.932H200.199V74.449H187.73ZM221.133 74.449V40.6885C221.133 36.7936 220.193 33.7606 218.311 31.5892C216.43 29.4177 213.865 28.332 210.614 28.332C207.467 28.332 204.936 29.4177 203.021 31.5892C201.139 33.7606 200.199 36.5868 200.199 40.068L194.657 36.3456C194.657 32.7265 195.547 29.4694 197.325 26.5742C199.104 23.6789 201.499 21.4041 204.509 19.7496C207.553 18.0608 210.956 17.2164 214.719 17.2164C218.859 17.2164 222.313 18.1125 225.085 19.9047C227.89 21.6626 229.976 24.0753 231.344 27.1429C232.747 30.176 233.448 33.6054 233.448 37.4313V74.449H221.133Z" fill="#121722"/>
<path d="M295.372 76C288.53 76 282.972 74.449 278.696 71.347C274.42 68.2449 271.82 63.8848 270.897 58.2667L283.519 56.3021C284.169 59.0594 285.606 61.2308 287.83 62.8163C290.053 64.4018 292.858 65.1946 296.244 65.1946C299.22 65.1946 301.512 64.6086 303.12 63.4368C304.762 62.2304 305.583 60.5932 305.583 58.5252C305.583 57.2499 305.275 56.2331 304.659 55.4749C304.077 54.6821 302.778 53.9238 300.759 53.2C298.741 52.4762 295.645 51.5628 291.473 50.4599C286.82 49.219 283.125 47.8921 280.389 46.4789C277.653 45.0313 275.686 43.3252 274.488 41.3606C273.291 39.396 272.692 37.0177 272.692 34.2259C272.692 30.7447 273.599 27.7116 275.412 25.1265C277.225 22.5415 279.756 20.5596 283.006 19.181C286.256 17.7678 290.087 17.0612 294.5 17.0612C298.81 17.0612 302.624 17.7333 305.942 19.0775C309.295 20.4218 311.996 22.3347 314.049 24.8164C316.101 27.2979 317.368 30.2104 317.846 33.5538L305.224 35.8286C304.916 33.4503 303.839 31.5718 301.991 30.1932C300.178 28.8145 297.749 28.039 294.705 27.8667C291.797 27.6943 289.454 28.1424 287.675 29.2109C285.897 30.2449 285.007 31.7097 285.007 33.6054C285.007 34.6739 285.366 35.5873 286.085 36.3456C286.803 37.1039 288.239 37.8621 290.395 38.6204C292.584 39.3786 295.834 40.3093 300.144 41.4122C304.557 42.5497 308.08 43.8594 310.714 45.3415C313.382 46.7892 315.298 48.5297 316.461 50.5632C317.658 52.5968 318.257 55.0612 318.257 57.9565C318.257 63.5746 316.221 67.9864 312.151 71.1918C308.114 74.3973 302.521 76 295.372 76Z" fill="#121722"/>
<path d="M355.818 74.449C352.158 75.1383 348.566 75.4313 345.043 75.3279C341.554 75.2589 338.424 74.6213 335.653 73.415C332.882 72.1742 330.778 70.2268 329.341 67.5728C328.076 65.1601 327.409 62.6957 327.34 60.1796C327.272 57.6635 327.238 54.82 327.238 51.649V3.10205H339.553V50.9252C339.553 53.1656 339.569 55.1302 339.604 56.819C339.672 58.5079 340.031 59.8867 340.682 60.9551C341.913 63.0232 343.88 64.1778 346.582 64.419C349.284 64.6603 352.364 64.5225 355.818 64.0054V74.449ZM317.181 28.3836V18.6122H355.818V28.3836H317.181Z" fill="#121722"/>
<path d="M383.964 76C378.355 76 373.429 74.7764 369.187 72.3293C364.946 69.8821 361.627 66.4871 359.233 62.1442C356.872 57.8014 355.692 52.8036 355.692 47.151C355.692 41.0503 356.856 35.7596 359.181 31.2789C361.508 26.7637 364.74 23.2653 368.879 20.7836C373.018 18.3021 377.808 17.0612 383.246 17.0612C388.993 17.0612 393.868 18.4227 397.87 21.1456C401.907 23.834 404.9 27.6426 406.85 32.5714C408.799 37.5003 409.535 43.3079 409.056 49.9946H396.793V45.4449C396.759 39.3787 395.698 34.9497 393.612 32.1578C391.525 29.366 388.241 27.97 383.76 27.97C378.697 27.97 374.934 29.5556 372.471 32.7265C370.008 35.8631 368.777 40.4644 368.777 46.5306C368.777 52.1832 370.008 56.5606 372.471 59.6625C374.934 62.7646 378.526 64.3157 383.246 64.3157C386.291 64.3157 388.907 63.6435 391.097 62.2993C393.321 60.9207 395.031 58.9388 396.228 56.3538L408.441 60.0762C406.319 65.1084 403.036 69.0204 398.588 71.8122C394.176 74.6041 389.301 76 383.964 76ZM364.877 49.9946V40.585H403.001V49.9946H364.877Z" fill="#121722"/>
<path d="M414.347 74.449V18.6122H425.277V32.2096L423.943 30.4517C424.626 28.5904 425.533 26.9016 426.662 25.385C427.825 23.834 429.211 22.5587 430.818 21.5592C432.187 20.6286 433.692 19.9047 435.334 19.3878C437.01 18.8363 438.72 18.5089 440.465 18.4054C442.209 18.2675 443.902 18.3365 445.545 18.6122V30.2449C443.902 29.7624 442.004 29.6072 439.849 29.7796C437.728 29.9519 435.812 30.5551 434.102 31.5891C432.392 32.5197 430.989 33.7089 429.895 35.1564C428.834 36.604 428.047 38.2585 427.535 40.1197C427.021 41.9465 426.764 43.9283 426.764 46.0653V74.449H414.347Z" fill="#121722"/>
<path d="M470.394 76C465.298 76 460.851 74.7075 457.054 72.1225C453.256 69.5374 450.315 66.0218 448.228 61.5755C446.142 57.1293 445.098 52.1143 445.098 46.5306C445.098 40.878 446.142 35.8458 448.228 31.434C450.349 26.9878 453.342 23.4893 457.208 20.9388C461.073 18.3537 465.622 17.0612 470.856 17.0612C476.124 17.0612 480.537 18.3537 484.094 20.9388C487.686 23.4893 490.406 26.9878 492.253 31.434C494.1 35.8803 495.024 40.9125 495.024 46.5306C495.024 52.0798 494.1 57.0947 492.253 61.5755C490.406 66.0218 487.652 69.5374 483.992 72.1225C480.331 74.7075 475.799 76 470.394 76ZM472.293 64.8326C475.611 64.8326 478.279 64.0743 480.298 62.5578C482.35 61.0068 483.838 58.8526 484.761 56.0953C485.719 53.3379 486.198 50.1497 486.198 46.5306C486.198 42.8771 485.719 39.6889 484.761 36.966C483.838 34.2086 482.384 32.0717 480.4 30.5551C478.416 29.004 475.851 28.2286 472.703 28.2286C469.385 28.2286 466.649 29.0558 464.493 30.7102C462.338 32.3301 460.748 34.5361 459.722 37.3279C458.695 40.0853 458.182 43.1528 458.182 46.5306C458.182 49.9429 458.679 53.0449 459.67 55.8367C460.697 58.5941 462.253 60.7828 464.34 62.4028C466.427 64.0227 469.077 64.8326 472.293 64.8326ZM486.198 74.449V35.2599H484.659V0H497.127V74.449H486.198Z" fill="#121722"/>
<path d="M634.572 74.449V40.5333C634.572 36.7075 633.631 33.7261 631.749 31.5892C629.868 29.4177 627.319 28.332 624.104 28.332C622.12 28.332 620.341 28.7972 618.768 29.7279C617.194 30.624 615.946 31.9682 615.022 33.7606C614.099 35.5184 613.637 37.6208 613.637 40.068L608.146 36.8109C608.112 32.9506 608.968 29.5556 610.712 26.6258C612.491 23.6617 614.886 21.3524 617.896 19.6979C620.905 18.0435 624.258 17.2164 627.953 17.2164C634.076 17.2164 638.762 19.0775 642.012 22.8C645.295 26.4879 646.938 31.3478 646.938 37.3796V74.449H634.572ZM567.919 74.449V18.6122H578.848V35.932H580.388V74.449H567.919ZM601.322 74.449V40.6885C601.322 36.7936 600.382 33.7606 598.5 31.5892C596.619 29.4177 594.053 28.332 590.803 28.332C587.656 28.332 585.125 29.4177 583.209 31.5892C581.328 33.7606 580.388 36.5868 580.388 40.068L574.845 36.3456C574.845 32.7265 575.735 29.4694 577.514 26.5742C579.292 23.6789 581.687 21.4041 584.697 19.7496C587.742 18.0608 591.145 17.2164 594.908 17.2164C599.047 17.2164 602.502 18.1125 605.273 19.9047C608.078 21.6626 610.165 24.0753 611.533 27.1429C612.935 30.176 613.637 33.6054 613.637 37.4313V74.449H601.322Z" fill="#121722"/>
<path d="M525.9 76C521.898 76 518.511 75.2417 515.74 73.7252C512.97 72.1742 510.866 70.1234 509.429 67.5728C508.027 65.0222 507.325 62.2132 507.325 59.1456C507.325 56.4571 507.77 54.0445 508.659 51.9075C509.549 49.7361 510.917 47.8749 512.764 46.3238C514.611 44.7383 517.006 43.4458 519.947 42.4463C522.172 41.7225 524.771 41.0675 527.748 40.4817C530.757 39.8957 534.007 39.3614 537.496 38.8789C541.019 38.3619 544.697 37.8104 548.529 37.2245L544.115 39.7578C544.15 35.8975 543.295 33.0539 541.55 31.2272C539.805 29.4004 536.863 28.4871 532.724 28.4871C530.227 28.4871 527.815 29.073 525.49 30.2449C523.163 31.4168 521.538 33.4331 520.615 36.2939L509.326 32.7265C510.695 28.0046 513.295 24.2132 517.126 21.3524C520.991 18.4917 526.19 17.0612 532.724 17.0612C537.65 17.0612 541.977 17.8712 545.706 19.4911C549.469 21.1111 552.256 23.7651 554.07 27.4531C555.062 29.4177 555.661 31.434 555.866 33.5021C556.071 35.5356 556.174 37.7588 556.174 40.1714V74.449H545.347V62.351L547.142 64.3157C544.646 68.3483 541.721 71.3125 538.369 73.2082C535.051 75.0693 530.895 76 525.9 76ZM528.363 66.0735C531.168 66.0735 533.562 65.5737 535.547 64.5742C537.53 63.5746 539.104 62.351 540.267 60.9035C541.464 59.4558 542.268 58.0943 542.679 56.819C543.328 55.2336 543.688 53.424 543.757 51.3904C543.859 49.3225 543.91 47.6508 543.91 46.3755L547.707 47.5129C543.979 48.0989 540.781 48.6159 538.112 49.0639C535.444 49.512 533.152 49.9429 531.236 50.3564C529.321 50.7356 527.628 51.1664 526.157 51.649C524.72 52.166 523.505 52.7692 522.514 53.4585C521.521 54.1479 520.752 54.9406 520.205 55.8367C519.691 56.7329 519.435 57.7842 519.435 58.9904C519.435 60.3692 519.776 61.5928 520.461 62.6613C521.145 63.6953 522.137 64.5225 523.437 65.1429C524.771 65.7632 526.413 66.0735 528.363 66.0735Z" fill="#121722"/>
</g>
<defs>
<clipPath id="clip0_1_72">
<rect width="647" height="76" fill="white"/>
</clipPath>
</defs>
</svg>
