<svg width="330" height="60" viewBox="0 0 330 60" fill="none" xmlns="http://www.w3.org/2000/svg">
<g clip-path="url(#clip0_282_560)">
<path d="M11.28 44.96C11.28 46.9867 11.76 48.4267 12.72 49.28C13.68 50.08 14.7733 50.48 16 50.48C17.1733 50.48 18.24 50.08 19.2 49.28C20.16 48.4267 20.64 46.9867 20.64 44.96V32.88H30.24V44.24C30.24 46.6933 29.8933 48.8533 29.2 50.72C28.5067 52.5333 27.52 54.0533 26.24 55.28C24.96 56.4533 23.44 57.3333 21.68 57.92C19.92 58.5067 17.9733 58.8 15.84 58.8C11.6267 58.8 8.21333 57.6267 5.6 55.28C2.98667 52.88 1.68 49.2 1.68 44.24V15.68C1.68 10.72 2.98667 7.06666 5.6 4.72C8.21333 2.37333 11.6267 1.2 15.84 1.2C17.9733 1.2 19.92 1.49333 21.68 2.08C23.44 2.66666 24.96 3.57333 26.24 4.8C27.52 5.97333 28.5067 7.46667 29.2 9.28C29.8933 11.0933 30.24 13.2267 30.24 15.68V27.12H20.64V15.04C20.64 13.0133 20.16 11.6 19.2 10.8C18.24 10 17.1733 9.6 16 9.6C14.7733 9.6 13.68 10 12.72 10.8C11.76 11.6 11.28 13.0133 11.28 15.04V44.96ZM33.555 15.68C33.555 10.72 34.8617 7.06666 37.475 4.72C40.0883 2.37333 43.5017 1.2 47.715 1.2C49.8483 1.2 51.795 1.49333 53.555 2.08C55.315 2.66666 56.835 3.57333 58.115 4.8C59.395 5.97333 60.3817 7.46667 61.075 9.28C61.7683 11.0933 62.115 13.2267 62.115 15.68V44.24C62.115 46.6933 61.7683 48.8533 61.075 50.72C60.3817 52.5333 59.395 54.0533 58.115 55.28C56.835 56.4533 55.315 57.3333 53.555 57.92C51.795 58.5067 49.8483 58.8 47.715 58.8C43.5017 58.8 40.0883 57.6267 37.475 55.28C34.8617 52.9333 33.555 49.2533 33.555 44.24V15.68ZM43.155 44.96C43.155 46.9867 43.635 48.4267 44.595 49.28C45.555 50.08 46.6217 50.48 47.795 50.48C49.0217 50.48 50.115 50.08 51.075 49.28C52.035 48.4267 52.515 46.9867 52.515 44.96V15.04C52.515 12.96 52.035 11.52 51.075 10.72C50.115 9.92 49.0217 9.52 47.795 9.52C46.6217 9.52 45.555 9.92 44.595 10.72C43.635 11.52 43.155 12.96 43.155 15.04V44.96ZM94.23 2V58H83.43L73.67 18.32H73.11L75.11 58H65.51V2H76.31L86.31 41.84H86.87L84.63 2H94.23ZM116.574 22.08V15.04C116.574 13.28 116.174 11.92 115.374 10.96C114.574 10 113.48 9.52 112.094 9.52C110.654 9.52 109.534 10 108.734 10.96C107.934 11.92 107.534 13.28 107.534 15.04V18.4C107.534 19.36 107.614 20.2133 107.774 20.96C107.987 21.6533 108.36 22.32 108.894 22.96C109.48 23.5467 110.254 24.1333 111.214 24.72C112.174 25.3067 113.454 25.9467 115.054 26.64L117.934 27.84C119.48 28.48 120.787 29.2267 121.854 30.08C122.92 30.9333 123.774 31.9733 124.414 33.2C125.107 34.3733 125.587 35.76 125.854 37.36C126.174 38.9067 126.334 40.7467 126.334 42.88V44.24C126.334 48.88 125.08 52.48 122.574 55.04C120.067 57.5467 116.52 58.8 111.934 58.8C107.4 58.8 103.907 57.5467 101.454 55.04C99.0004 52.5333 97.7738 48.9333 97.7738 44.24V37.92H107.374V44.96C107.374 46.72 107.774 48.08 108.574 49.04C109.427 50 110.6 50.48 112.094 50.48C113.587 50.48 114.734 50 115.534 49.04C116.334 48.08 116.734 46.7467 116.734 45.04V41.36C116.734 40.4 116.627 39.5733 116.414 38.88C116.254 38.1333 115.907 37.4667 115.374 36.88C114.84 36.24 114.094 35.6533 113.134 35.12C112.227 34.5333 111.027 33.92 109.534 33.28L106.254 31.92C104.76 31.28 103.48 30.5333 102.414 29.68C101.347 28.7733 100.467 27.7333 99.7738 26.56C99.1338 25.3333 98.6538 23.92 98.3338 22.32C98.0671 20.72 97.9338 18.8533 97.9338 16.72V15.68C97.9338 10.9867 99.1338 7.41333 101.534 4.96C103.987 2.45333 107.454 1.2 111.934 1.2C116.467 1.2 119.96 2.48 122.414 5.04C124.92 7.54666 126.174 11.0933 126.174 15.68V22.08H116.574ZM139.249 2V44.96C139.249 46.9867 139.702 48.4267 140.609 49.28C141.515 50.08 142.529 50.48 143.649 50.48C144.715 50.48 145.702 50.08 146.609 49.28C147.515 48.4267 147.969 46.9867 147.969 44.96V2H157.569V44.24C157.569 49.1467 156.262 52.8 153.649 55.2C151.035 57.6 147.649 58.8 143.489 58.8C139.329 58.8 135.969 57.6267 133.409 55.28C130.902 52.9333 129.649 49.2533 129.649 44.24V2H139.249ZM170.659 2V49.68H181.219V58H161.059V2H170.659ZM207.674 10.32H199.034V58H189.434V10.32H180.714V2H207.674V10.32ZM237.796 2V58H228.196V33.44H219.956V58H210.356V2H219.956V25.12H228.196V2H237.796ZM250.971 2V58H241.371V2H250.971ZM283.214 2V58H272.414L262.654 18.32H262.094L264.094 58H254.494V2H265.294L275.294 41.84H275.854L273.614 2H283.214ZM296.598 25.84H297.798L304.438 2H314.598L305.638 30L315.638 57.92H305.398L297.798 34.16H296.598V57.92H286.998V2H296.598V25.84Z" fill="#1A60FC"/>
<path d="M318.797 53.04C318.797 51.3333 319.224 50.0267 320.077 49.12C320.93 48.2133 322.184 47.76 323.837 47.76C325.49 47.76 326.744 48.24 327.597 49.2C328.504 50.1067 328.957 51.4133 328.957 53.12C328.957 54.8267 328.53 56.1333 327.677 57.04C326.824 57.9467 325.544 58.4 323.837 58.4C320.477 58.4 318.797 56.6133 318.797 53.04Z" fill="#10141F"/>
</g>
<defs>
<clipPath id="clip0_282_560">
<rect width="330" height="60" fill="white"/>
</clipPath>
</defs>
</svg>
