<svg width="32" height="32" viewBox="0 0 32 32" fill="none" xmlns="http://www.w3.org/2000/svg">
<rect width="32" height="32" rx="4" fill="#FAC831"/>
<path d="M14.666 19.762C14.666 20.4207 14.822 20.8887 15.134 21.166C15.446 21.426 15.8013 21.556 16.2 21.556C16.5813 21.556 16.928 21.426 17.24 21.166C17.552 20.8887 17.708 20.4207 17.708 19.762V15.836H20.828V19.528C20.828 20.3253 20.7153 21.0273 20.49 21.634C20.2647 22.2233 19.944 22.7173 19.528 23.116C19.112 23.4973 18.618 23.7833 18.046 23.974C17.474 24.1647 16.8413 24.26 16.148 24.26C14.7787 24.26 13.6693 23.8787 12.82 23.116C11.9707 22.336 11.546 21.14 11.546 19.528V10.246C11.546 8.634 11.9707 7.44667 12.82 6.684C13.6693 5.92133 14.7787 5.54 16.148 5.54C16.8413 5.54 17.474 5.63533 18.046 5.826C18.618 6.01667 19.112 6.31133 19.528 6.71C19.944 7.09133 20.2647 7.57667 20.49 8.166C20.7153 8.75533 20.828 9.44867 20.828 10.246V13.964H17.708V10.038C17.708 9.37933 17.552 8.92 17.24 8.66C16.928 8.4 16.5813 8.27 16.2 8.27C15.8013 8.27 15.446 8.4 15.134 8.66C14.822 8.92 14.666 9.37933 14.666 10.038V19.762ZM22.0094 22.388C22.0094 21.8333 22.148 21.4087 22.4254 21.114C22.7027 20.8193 23.11 20.672 23.6474 20.672C24.1847 20.672 24.592 20.828 24.8694 21.14C25.164 21.4347 25.3114 21.8593 25.3114 22.414C25.3114 22.9687 25.1727 23.3933 24.8954 23.688C24.618 23.9827 24.202 24.13 23.6474 24.13C22.5554 24.13 22.0094 23.5493 22.0094 22.388Z" fill="#1A60FC"/>
</svg>
